<mxfile host="app.diagrams.net" modified="2023-08-15T13:07:56.105Z" agent="Mozilla/5.0 (Macintosh; Intel Mac OS X 10_15_7) AppleWebKit/537.36 (KHTML, like Gecko) Chrome/115.0.0.0 Safari/537.36" version="21.6.8" etag="pNiAt7WbgK2RlODxiaJy" type="github">
  <diagram name="Trang-1" id="o3OJIefSYaQPNEpt-kiU">
    <mxGraphModel>
      <root>
        <mxCell id="0" />
        <mxCell id="1" parent="0" />
      </root>
    </mxGraphModel>
  </diagram>
</mxfile>
